#!OML:ASF I:\Actors\actors\Patient Classification 1\Patient 1\Session 1\Subject1.ASF
:FULLY-SPECIFIED
:DEGREES
1255
root 0.677914 17.5896 9.29937 37.8536 -3.2121 -8.79892
lowerback 14.8166 -0.956738 9.53237
upperback -7.10711 1.14543 2.37413
thorax -16.5107 -0.336631 -2.96908
lowerneck -11.943 -4.59676 -2.8572
upperneck 2.57247 -6.59001 13.1016
head 3.28315 -2.77166 4.03222
rclavicle 1.59028e-014 -1.88845e-014
rhumerus 57.706 19.3786 -59.846
rradius 115.397
rwrist 38.6
rhand -27.1164 -31.3701
rfingers 7.12502
rthumb -0.532537 298.651
lclavicle 1.59028e-014 -1.88845e-014
lhumerus 39.6345 -36.8049 76.9519
lradius 112.27
lwrist -23.8741
lhand -55.9525 -58.6518
lfingers 7.12502
lthumb -28.2908 -30.7683
rfemur -36.9759 27.9796 8.34862
rtibia -1.51812
rfoot -5.24687 -29.2997
rtoes 8.07028
lfemur -36.2196 -53.7795 29.1549
ltibia -8.63552
lfoot -75.7744 43.3838
ltoes 52.2973
1256
root 0.671743 17.5914 9.30602 37.9366 -3.39665 -8.75955
lowerback 14.9926 -1.01193 9.60999
upperback -7.19814 1.10759 2.30541
thorax -16.7431 -0.380155 -3.07863
lowerneck -12.0635 -4.53906 -2.91382
upperneck 2.83908 -6.54915 13.3004
head 3.39028 -2.72837 4.1027
rclavicle 1.55052e-014 -3.4191e-014
rhumerus 57.5999 19.548 -59.9567
rradius 115.433
rwrist 38.7009
rhand -26.6833 -31.7792
rfingers 7.12502
rthumb -0.11424 298.241
lclavicle 1.55052e-014 -3.4191e-014
lhumerus 39.3926 -36.8237 77.0042
lradius 112.231
lwrist -23.9231
lhand -56.0788 -60.0799
lfingers 7.12502
lthumb -28.4116 -32.2165
rfemur -37.0534 28.1052 8.192
rtibia -1.60806
rfoot -5.1994 -29.4579
rtoes 8.43394
lfemur -36.0834 -53.6114 28.909
ltibia -8.65307
lfoot -75.6783 43.3972
ltoes 52.425
1257
root 0.667148 17.5931 9.31277 37.964 -3.55871 -8.76109
lowerback 14.8339 -0.98967 9.54247
upperback -7.06044 1.10312 2.39089
thorax -16.4695 -0.35284 -2.94436
lowerneck -12.2197 -4.48653 -3.06134
upperneck 2.99524 -6.48047 13.3846
head 3.46542 -2.68051 4.15529
rclavicle 1.50082e-014 -5.36719e-015
rhumerus 57.8204 19.5576 -59.6602
rradius 115.5
rwrist 38.6354
rhand -26.5574 -32.1713
rfingers 7.12502
rthumb 0.00736186 297.849
lclavicle 1.50082e-014 -5.36719e-015
lhumerus 39.5697 -36.6956 77.0622
lradius 112.191
lwrist -23.9825
lhand -56.0838 -59.0018
lfingers 7.12502
lthumb -28.4163 -31.1392
rfemur -37.0408 28.2576 8.12126
rtibia -1.72638
rfoot -5.20111 -29.6331
rtoes 8.99986
lfemur -35.806 -53.5064 28.6091
ltibia -8.71396
lfoot -75.5875 43.3519
ltoes 52.5964
1258
root 0.663199 17.5957 9.31935 37.9987 -3.71809 -8.7877
lowerback 14.9744 -1.00674 9.59095
upperback -7.09258 1.1142 2.40792
thorax -16.6 -0.358199 -2.95402
lowerneck -12.249 -4.56519 -3.29921
upperneck 3.10091 -6.57526 13.5425
head 3.52444 -2.71833 4.23479
rclavicle -4.04527e-014 5.20816e-014
rhumerus 57.7729 19.6914 -59.5783
rradius 115.493
rwrist 38.5422
rhand -26.9045 -32.2974
rfingers 7.12502
rthumb -0.327891 297.723
lclavicle -4.04527e-014 5.20816e-014
lhumerus 39.419 -36.6637 77.1973
lradius 112.163
lwrist -24.145
lhand -56.2596 -58.9384
lfingers 7.12502
lthumb -28.5843 -31.1039
rfemur -37.0461 28.4104 8.05498
rtibia -1.83022
rfoot -5.15094 -29.7889
rtoes 9.31301
lfemur -35.507 -53.3831 28.3295
ltibia -8.79326
lfoot -75.5073 43.2248
ltoes 52.7539
1259
root 0.655487 17.599 9.32512 38.081 -3.89639 -8.81449
lowerback 14.9267 -0.989733 9.50531
upperback -7.04934 1.11475 2.45195
thorax -16.5149 -0.340572 -2.85676
lowerneck -12.1407 -4.55951 -3.16147
upperneck 2.90915 -6.55056 13.3306
head 3.43313 -2.7257 4.15096
rclavicle 5.46658e-015 -3.598e-014
rhumerus 57.8821 19.7731 -59.5016
rradius 115.45
rwrist 38.4801
rhand -27.0676 -32.553
rfingers 7.12502
rthumb -0.485416 297.468
lclavicle 5.46658e-015 -3.598e-014
lhumerus 39.4519 -36.6252 77.2219
lradius 112.133
lwrist -24.2522
lhand -56.4331 -59.1964
lfingers 7.12502
lthumb -28.7501 -31.3899
rfemur -37.1542 28.569 7.94894
rtibia -1.89431
rfoot -5.06577 -29.9468
rtoes 9.34955
lfemur -35.2884 -53.1843 28.1149
ltibia -8.85452
lfoot -75.4277 43.0933
ltoes 52.8812
1260
root 0.646508 17.6016 9.32988 38.2138 -4.05688 -8.84268
lowerback 15.1171 -1.02377 9.6684
upperback -7.20197 1.11913 2.29625
thorax -16.8273 -0.38627 -3.12508
lowerneck -12.2017 -4.58251 -2.85338
upperneck 3.15638 -6.64819 13.2202
head 3.51104 -2.76206 4.05674
rclavicle -5.56597e-015 1.39149e-014
rhumerus 57.5835 20.0314 -59.9354
rradius 115.393
rwrist 38.8495
rhand -26.7459 -32.751
rfingers 7.12502
rthumb -0.174678 297.269
lclavicle -5.56597e-015 1.39149e-014
lhumerus 39.1819 -36.8151 77.1338
lradius 112.156
lwrist -24.1557
lhand -56.3366 -59.4979
lfingers 7.12502
lthumb -28.6579 -31.6758
rfemur -37.348 28.7036 7.82767
rtibia -1.93399
rfoot -4.93209 -30.1283
rtoes 9.2569
lfemur -35.1632 -52.9364 27.999
ltibia -8.92322
lfoot -75.2585 43.0989
ltoes 52.7958
